<svg width="59" height="33" viewBox="0 0 59 33" xmlns="http://www.w3.org/2000/svg"><title>18A3ACF7-4401-4A4E-BE55-0291D9B28762</title><g fill-rule="nonzero" fill="#FFF"><path d="M44.365 32.33a2.48 2.48 0 0 1-1.189-.311l-3.765-2.24c-.567-.312-.283-.426-.114-.482.765-.255.906-.312 1.7-.766.084-.057.197-.028.282.028l2.888 1.73c.114.057.255.057.34 0l11.297-6.55c.113-.056.17-.17.17-.311V10.357c0-.142-.057-.256-.17-.312L44.507 3.523c-.113-.056-.255-.056-.34 0L32.87 10.045c-.113.056-.17.198-.17.312v13.07c0 .114.057.256.17.312l3.086 1.787c1.67.85 2.718-.142 2.718-1.134V11.49c0-.17.142-.34.34-.34h1.444c.17 0 .34.141.34.34v12.9c0 2.24-1.217 3.545-3.341 3.545-.651 0-1.16 0-2.605-.71l-2.973-1.7a2.394 2.394 0 0 1-1.189-2.07V10.385c0-.85.453-1.645 1.19-2.07l11.296-6.55a2.524 2.524 0 0 1 2.379 0l11.297 6.55a2.394 2.394 0 0 1 1.189 2.07v13.07c0 .851-.453 1.645-1.19 2.07l-11.296 6.55c-.368.17-.793.256-1.19.256zm3.483-8.988c-4.955 0-5.974-2.268-5.974-4.196 0-.17.141-.34.34-.34h1.472c.17 0 .311.113.311.283.227 1.503.878 2.24 3.88 2.24 2.378 0 3.397-.538 3.397-1.814 0-.737-.283-1.276-3.992-1.645-3.086-.312-5.012-.992-5.012-3.459 0-2.297 1.926-3.657 5.153-3.657 3.624 0 5.408 1.247 5.635 3.969 0 .085-.029.17-.085.255-.057.057-.142.114-.227.114h-1.472a.332.332 0 0 1-.311-.256c-.34-1.559-1.218-2.07-3.54-2.07-2.604 0-2.916.908-2.916 1.588 0 .823.368 1.078 3.879 1.531 3.483.454 5.125 1.106 5.125 3.545-.029 2.495-2.067 3.912-5.663 3.912zM26.488 13.522c.453-.255.708-.737.708-1.248V8.9c0-.51-.283-.992-.708-1.247L14.568.735a1.458 1.458 0 0 0-1.444 0L1.12 7.68A1.443 1.443 0 0 0 .383 8.93v13.865c0 .51.283.992.736 1.247l11.92 6.805c.453.255.991.255 1.416 0l7.22-4.026a.705.705 0 0 0 .368-.624.705.705 0 0 0-.368-.624L9.613 18.626a.74.74 0 0 1-.368-.624v-4.338c0-.255.142-.51.368-.624l3.766-2.155a.69.69 0 0 1 .736 0l3.766 2.155a.74.74 0 0 1 .368.624v3.402c0 .255.141.51.368.624a.69.69 0 0 0 .736 0l7.135-4.168z"/><path d="M13.662 12.87a.257.257 0 0 1 .283 0l2.294 1.332a.298.298 0 0 1 .141.256v2.665a.298.298 0 0 1-.141.255l-2.294 1.333a.257.257 0 0 1-.283 0l-2.293-1.333a.298.298 0 0 1-.142-.255v-2.665c0-.114.057-.199.142-.256l2.293-1.332z"/></g></svg>