<svg width="47" height="42" viewBox="0 0 47 42" xmlns="http://www.w3.org/2000/svg"><title>D4CF7FAC-8AC3-488A-8255-6D6EF76F85EA</title><g fill-rule="nonzero" fill="#FFF"><ellipse cx="23.195" cy="20.816" rx="4.201" ry="4.225"/><path d="M11.568 41.011c-1.266-.735-2.085-2.064-2.461-3.84-.342-1.612-.323-3.602.039-5.865.722-4.524 2.78-9.96 5.82-15.257 3.04-5.296 6.694-9.807 10.228-12.698C26.962 1.904 28.666.893 30.225.384c1.718-.56 3.271-.511 4.538.224 1.266.735 2.084 2.064 2.46 3.84.343 1.612.323 3.602-.038 5.865-.723 4.524-2.78 9.96-5.82 15.257-3.041 5.296-6.694 9.807-10.228 12.698-1.769 1.447-3.473 2.458-5.032 2.967-1.718.56-3.27.511-4.537-.224zm1.006-1.752c1.504.874 4.15.011 7.293-2.56 3.331-2.726 6.83-7.046 9.755-12.14 2.924-5.095 4.895-10.303 5.576-14.567.643-4.023.063-6.758-1.441-7.632-1.505-.874-4.15-.011-7.294 2.56-3.33 2.725-6.83 7.046-9.754 12.14-2.925 5.095-4.896 10.303-5.577 14.567-.643 4.023-.063 6.758 1.442 7.632z"/><path d="M0 20.816c0-1.47.735-2.848 2.076-4.064 1.217-1.104 2.94-2.082 5.07-2.899 4.257-1.632 9.968-2.559 16.049-2.559 6.08 0 11.791.927 16.048 2.56 2.13.816 3.853 1.794 5.07 2.898 1.341 1.216 2.076 2.593 2.076 4.064 0 1.47-.735 2.847-2.076 4.063-1.217 1.104-2.94 2.082-5.07 2.899-4.257 1.632-9.967 2.559-16.048 2.559-6.081 0-11.792-.927-16.049-2.559-2.13-.817-3.853-1.795-5.07-2.899C.735 23.663 0 22.286 0 20.816zm2.012 0c0 1.747 2.065 3.62 5.851 5.072 4.012 1.538 9.483 2.426 15.332 2.426s11.319-.888 15.331-2.426c3.786-1.452 5.851-3.325 5.851-5.072 0-1.748-2.065-3.62-5.851-5.072-4.012-1.539-9.482-2.426-15.331-2.426-5.85 0-11.32.887-15.332 2.426-3.786 1.452-5.851 3.324-5.851 5.072z"/><path d="M16.115.413c1.559.508 3.263 1.52 5.031 2.967 3.534 2.89 7.187 7.401 10.227 12.698 3.04 5.296 5.099 10.733 5.821 15.256.362 2.264.381 4.254.04 5.866-.377 1.776-1.196 3.105-2.462 3.84-1.266.735-2.82.784-4.537.223-1.56-.508-3.263-1.52-5.032-2.966-3.534-2.891-7.187-7.402-10.227-12.698s-5.098-10.733-5.82-15.257c-.362-2.264-.382-4.253-.04-5.865.377-1.777 1.195-3.105 2.461-3.84 1.266-.736 2.82-.784 4.538-.224zM11.14 10.02c.681 4.264 2.653 9.472 5.577 14.566 2.925 5.094 6.424 9.415 9.755 12.14 3.143 2.572 5.788 3.434 7.293 2.56 1.505-.873 2.085-3.608 1.442-7.632-.681-4.263-2.652-9.472-5.577-14.566-2.924-5.094-6.424-9.415-9.755-12.14-3.143-2.571-5.788-3.434-7.293-2.56-1.504.873-2.084 3.608-1.442 7.632z"/></g></svg>