<svg width="43" height="43" viewBox="0 0 43 43" xmlns="http://www.w3.org/2000/svg"><title>B211EBC1-CA03-4A19-9B1A-37E95A0F35B8</title><g fill-rule="nonzero" fill="#FFF"><path d="M21.05.012C10.298.012 10.97 4.683 10.97 4.683l.012 4.84h10.262v1.453H6.905S.024 10.194.024 21.063 6.03 31.546 6.03 31.546h3.584v-5.043s-.193-6.017 5.91-6.017h10.178s5.718.093 5.718-5.535V5.644S32.288.012 21.05.012zm-5.658 3.254c1.021 0 1.847.827 1.847 1.85a1.846 1.846 0 1 1-3.693 0c0-1.023.825-1.85 1.846-1.85z"/><path d="M21.356 42.223c10.753 0 10.082-4.672 10.082-4.672l-.012-4.839H21.164v-1.453h14.338s6.88.782 6.88-10.087-6.005-10.484-6.005-10.484h-3.584v5.044s.193 6.016-5.91 6.016H16.705s-5.718-.092-5.718 5.536v9.307s-.869 5.632 10.37 5.632zm5.658-3.255a1.846 1.846 0 0 1-1.846-1.849 1.846 1.846 0 1 1 3.693 0c0 1.023-.826 1.85-1.847 1.85z"/></g></svg>