<svg width="49" height="34" viewBox="0 0 49 34" xmlns="http://www.w3.org/2000/svg"><title>094F4511-FBBF-4D0F-83CA-160E6539248F</title><path d="M18.403 23.262c-.216-.039-.3-.053-.385-.07-2.735-.506-4.464-2.154-5.284-4.744-.51-1.615.418-2.804 2.119-2.883 1.392-.064 2.346.733 3.189 1.66 1.087 1.196 2.083 2.473 3.15 3.687 1.537 1.748 3.348 2.873 5.825 2.525a11.064 11.064 0 0 0 5.842-2.66c.253-.22.531-.41.798-.615l-.168-.198c-1.414.438-2.857.585-4.33.511-2.23-.112-4.355-.575-6.256-1.794-1.734-1.113-3.014-2.603-3.622-4.594-.491-1.609.514-2.734 2.188-2.501.662.092 1.219.388 1.719.81.407.342.798.705 1.213 1.037 1.953 1.563 4.683 1.65 7.163-.047-4.077-.019-6.85-2.252-9.287-5.082-.953-1.108-1.884-2.235-2.857-3.325-1.883-2.11-3.972-3.968-6.833-4.602C8.933-.433 5.406.097 2.02 1.64A8.612 8.612 0 0 0 0 2.883c.345 0 .533.004.72 0 1.707-.044 2.987.711 3.91 2.102.67 1.011.987 2.156 1.228 3.333.358 1.748.173 3.53.38 5.284.531 4.513 2.847 7.662 7.16 9.275 1.582.591 3.204.788 5.005.385zM7.503 2.676c-.681.172-1.226-.102-1.787-.668.961-.238 1.809-.33 2.72-.366-.075.588-.424.907-.933 1.034zM29.835 29.03c-.06-.435-.432-.626-.725-.853-1.297-1.005-2.813-1.36-4.42-1.39-.96-.018-1.909-.09-2.814-.424-.414-.153-.878-.35-.867-.884.01-.541.483-.694.914-.823.352-.104.716-.171 1.117-.265-1.02-.65-2.015-.74-3.341-.209-2.089.836-4.147.737-6.23-.012-1.175-.422-2.218-1.085-3.304-1.672l-.03.02.029-.02c-.027-.081-.076-.083-.138-.038l.085.075c.9 1.47 2.118 2.652 3.492 3.663 2.647 1.946 5.538 3.107 8.921 2.591a46.746 46.746 0 0 1 3.296-.383c1.382-.112 2.698.276 4.015.624zM23.456 7.943c-.073-.052-.143-.185-.292-.048a10.722 10.722 0 0 0 4.663 3.609c3.039 1.227 6.123 1.437 9.277.354 2.448-.841 4.21-.02 5.124 2.348.132-2.748-1.491-4.75-4.077-5.142-1.455-.221-2.798.26-4.161.653-3.793 1.095-7.317.554-10.534-1.774zm18.901 10.718c.495.041.989.086 1.483.13-1.117-.977-2.477-1.055-3.854-.977-2.096.119-3.606 1.322-4.983 2.76-1.213 1.268-2.31 2.69-4.12 3.2.03.054.039.08.047.08.243.004.488.016.73.005 2.63-.119 5.107-.671 7.077-2.571.62-.598 1.176-1.263 1.775-1.884.5-.518 1.105-.805 1.845-.743zm-6.107-3.245c-1.963.171-3.667.98-5.268 2.045-1.232.82-2.55 1.208-4.03.952-.261-.045-.524-.079-.785-.118l-.01.109c.095.048.186.105.284.143.247.098.49.215.746.275 2.85.675 5.577.33 8.037-1.253 1.55-.997 3.155-1.186 4.894-.928.176.026.35.058.527.074.164.016.334.177.555.002-1.52-1.093-3.158-1.456-4.95-1.3zm-7.013-6.631c1.03.035 2.054-.1 3.13-.736-.315.028-.449.027-.577.053-1.483.294-2.814-.028-4-.962-.435-.342-.878-.676-1.319-1.012-1.747-1.33-3.75-1.775-5.941-1.737.035.107.037.18.076.219 2.384 2.4 5.143 4.055 8.63 4.175zm17.255 12.32c-1.475-1.457-3.455-1.645-5.288-.373 1.213.054 2.124.44 2.862 1.2.261.27.532.535.825.77 1.116.896 3.009.94 4.114.107-1.299-.504-1.299-.504-2.513-1.704zm-14.695 11.16c-1.297-2.404-3.476-2.946-5.994-2.785a6.76 6.76 0 0 1 2.078.965c.586.408 1.079.912 1.565 1.429.963 1.023 2.466 1.651 3.462 1.439-.458-.287-.864-.59-1.11-1.048zM43.863 18.84c0-.016 0-.031.002-.047l-.004.004.004-.005-.025-.002.015.013.008.037zM29.907 29.085a6.906 6.906 0 0 0-.052-.029c.003.011.005.022.011.03.004.007.027 0 .04 0zm-.052-.029l-.004-.023-.006.007.006-.007-.016-.004c0 .006.003.011.004.018l.016.01z" fill-rule="nonzero" fill="#000"/></svg>