<svg width="45" height="52" viewBox="0 0 45 52" xmlns="http://www.w3.org/2000/svg"><title>95CA374F-C999-455A-B09D-091AB02E4179</title><path d="M3.416 16.373c-1.749 0-3.167 1.434-3.167 3.202v12.516c0 1.769 1.418 3.203 3.167 3.203 1.748 0 3.166-1.434 3.166-3.203V19.575c0-1.768-1.418-3.202-3.166-3.202zm38.191 0c1.75 0 3.167 1.434 3.167 3.202v12.516c0 1.769-1.418 3.203-3.167 3.203-1.748 0-3.166-1.434-3.166-3.203V19.575c0-1.768 1.418-3.202 3.166-3.202zm-33.12.097h28.174v22.866a2.464 2.464 0 0 1-2.47 2.46h-2.82v6.963c0 1.769-1.417 3.203-3.166 3.203-1.749 0-3.167-1.434-3.167-3.203v-6.964H20.11v6.964c0 1.769-1.417 3.203-3.166 3.203-1.749 0-3.166-1.434-3.166-3.203v-6.964h-2.821c-1.364 0-2.47-1.1-2.47-2.459V16.47zM29.19 4.62c4.137 1.918 7.04 5.56 7.409 9.812H8.425c.369-4.252 3.27-7.894 7.408-9.811L13.231.858c-.155-.224-.116-.517.086-.656.201-.138.49-.07.645.154l2.704 3.909a16.002 16.002 0 0 1 5.846-1.089c2.085 0 4.064.39 5.846 1.089L31.06.356c.155-.224.444-.292.646-.154.201.139.24.432.085.656L29.19 4.62zm-.54 5.93c.86 0 1.559-.694 1.559-1.552 0-.857-.698-1.553-1.56-1.553-.86 0-1.558.696-1.558 1.553 0 .858.698 1.553 1.558 1.553zm-12.082 0c.861 0 1.56-.694 1.56-1.552 0-.857-.699-1.553-1.56-1.553-.86 0-1.558.696-1.558 1.553 0 .858.698 1.553 1.558 1.553z" fill="#FFF" fill-rule="evenodd"/></svg>