<svg width="34" height="34" viewBox="0 0 34 34" xmlns="http://www.w3.org/2000/svg"><title>52AB8CD8-8B58-4C1D-AEDA-3547877253A3</title><g fill-rule="nonzero" fill="none"><path fill="#FB651E" d="M0 0h34v34H0z"/><path d="M15.854 19.224L10.018 8.292h2.667l3.433 6.918c.053.123.115.251.185.383.07.132.132.269.185.41a.806.806 0 0 1 .08.145c.017.044.034.083.052.118.085.17.164.341.238.515.07.168.132.322.184.463.141-.3.295-.621.463-.964.167-.344.339-.7.515-1.07l3.485-6.918h2.483l-5.89 11.064v7.05h-2.244v-7.182z" fill="#FFF"/></g></svg>