<svg width="327" height="108" viewBox="0 0 327 108" xmlns="http://www.w3.org/2000/svg" xmlns:xlink="http://www.w3.org/1999/xlink"><title>0830AB91-CC78-4B3F-8108-62ABFC08E805</title><defs><path id="a" d="M0 0h327v108H0z"/><mask id="b" x="0" y="0" width="327" height="108" fill="#fff"><use xlink:href="#a"/></mask><mask id="c" x="0" y="0" width="327" height="108" fill="#fff"><use xlink:href="#a"/></mask></defs><g fill="none" fill-rule="evenodd"><path fill="#D1B382" d="M37 49h254v19H37z"/><mask id="d" fill="#fff"><use xlink:href="#a"/></mask><g stroke="#000" mask="url(#b)" stroke-width="4"><use mask="url(#c)" xlink:href="#a"/></g><path d="M110.405 42.96a1.917 1.917 0 0 0 0-3.832 1.917 1.917 0 0 0 0 3.833zM54.075 66.36c-4.457 0-8.082-3.883-8.082-8.657 0-4.707 3.625-8.535 8.082-8.535 4.456 0 8.081 3.828 8.081 8.535 0 4.774-3.625 8.657-8.081 8.657m0-19.905c-5.926 0-10.748 5.046-10.748 11.248v19.915h2.666V65.06c1.964 2.491 4.962 3.97 8.082 3.97 5.926 0 10.747-5.08 10.747-11.328 0-6.202-4.821-11.248-10.747-11.248M138.79 69.056h2.666V30.825h-2.666z" fill="#000" mask="url(#d)"/><path d="M179.6 50.203c-4.456 0-8.081-3.884-8.081-8.658 0-4.707 3.625-8.536 8.082-8.536 4.456 0 8.081 3.829 8.081 8.536 0 4.774-3.625 8.658-8.081 8.658m-10.748-8.658v27.511h2.666V48.903c1.964 2.492 4.962 3.97 8.082 3.97 5.926 0 10.746-5.08 10.746-11.328 0-6.202-4.82-11.248-10.746-11.248s-10.748 5.046-10.748 11.248z" fill="#000" mask="url(#d)" transform="matrix(1 0 0 -1 0 99.353)"/><path fill="#000" mask="url(#d)" d="M96.437 69.03h2.406l8.28-22.575h-2.871L97.64 64.527l-6.612-18.072h-2.87l8.254 22.506zM108.728 69.03h2.665V46.455h-2.665zM124.749 66.439c-4.457 0-8.082-3.866-8.082-8.615 0-4.838 3.625-8.775 8.082-8.775 4.456 0 8.081 3.937 8.081 8.775 0 4.75-3.625 8.615-8.081 8.615m0-19.984c-5.926 0-10.747 5.1-10.747 11.369 0 6.179 4.82 11.207 10.747 11.207 5.947 0 10.786-5.028 10.786-11.207 0-6.269-4.839-11.369-10.786-11.369M77.809 66.438c-4.457 0-8.082-3.865-8.082-8.615 0-4.838 3.625-8.774 8.082-8.774 4.456 0 8.081 3.936 8.081 8.774 0 4.75-3.625 8.615-8.081 8.615m0-19.983c-5.927 0-10.748 5.1-10.748 11.368 0 6.18 4.821 11.207 10.748 11.207 5.947 0 10.786-5.028 10.786-11.207 0-6.268-4.839-11.368-10.786-11.368M204.28 50.792a3.746 3.746 0 0 0-1.696-1.5 5.398 5.398 0 0 0-2.212-.47c-.565 0-1.12.07-1.666.211a4.941 4.941 0 0 0-1.469.637 3.186 3.186 0 0 0-1.045 1.122c-.263.465-.394 1.011-.394 1.638 0 .485.076.915.227 1.29.152.373.4.712.742 1.015.344.303.808.587 1.394.85.586.262 1.302.525 2.15.788.829.263 1.631.546 2.409.85a8.116 8.116 0 0 1 2.06 1.152 5.109 5.109 0 0 1 1.423 1.744c.354.697.53 1.572.53 2.623 0 1.072-.212 2.002-.636 2.79a5.837 5.837 0 0 1-1.68 1.956c-.698.516-1.5.9-2.409 1.153-.909.253-1.848.38-2.817.38-.626 0-1.252-.056-1.878-.168a9 9 0 0 1-1.803-.515 7.316 7.316 0 0 1-1.62-.91 5.478 5.478 0 0 1-1.303-1.38l2.181-1.79a4.486 4.486 0 0 0 1.939 1.79 5.928 5.928 0 0 0 4.286.364 5.01 5.01 0 0 0 1.5-.713 3.882 3.882 0 0 0 1.09-1.168c.283-.465.424-1 .424-1.607 0-.667-.11-1.208-.333-1.623-.222-.414-.565-.773-1.03-1.076-.464-.304-1.05-.577-1.757-.82l-2.484-.848a15.711 15.711 0 0 1-2.12-.834 6.514 6.514 0 0 1-1.681-1.153c-.475-.455-.849-1-1.121-1.638-.273-.637-.41-1.4-.41-2.29 0-1.03.203-1.93.607-2.699.404-.768.949-1.41 1.635-1.926a7.435 7.435 0 0 1 2.333-1.167 9.359 9.359 0 0 1 2.726-.395c1.212 0 2.318.187 3.317.561 1 .375 1.893 1.027 2.681 1.957l-2.09 1.82z"/><path d="M155.34 66.36c-4.457 0-8.083-3.883-8.083-8.657 0-4.707 3.626-8.535 8.082-8.535 4.457 0 8.082 3.828 8.082 8.535 0 4.774-3.625 8.657-8.082 8.657m-10.747-8.577V46.477h2.665v3.948c1.965-2.491 4.963-3.97 8.082-3.97 5.926 0 10.747 5.08 10.747 11.328 0 6.202-4.82 11.248-10.747 11.248-5.926 0-10.747-5.046-10.747-11.248z" fill="#000" mask="url(#d)" transform="rotate(180 155.34 57.743)"/><path d="M221.928 69.973c-2.51 0-4.678-1.015-6.504-3.046-1.825-2.03-2.738-4.553-2.738-7.569v-1.304c0-3.165.882-5.783 2.647-7.854 1.764-2.072 3.942-3.107 6.534-3.107 2.484 0 4.51.815 6.077 2.445 1.568 1.63 2.351 3.816 2.351 6.56v1.691h-16.51v1.57c0 2.661.78 4.913 2.342 6.753 1.56 1.84 3.494 2.761 5.801 2.761 1.643 0 3.017-.224 4.123-.672a7.455 7.455 0 0 0 2.84-2.017l.59.855a8.375 8.375 0 0 1-3.165 2.19c-1.242.496-2.705.744-4.388.744zm-.06-21.78c-2.186 0-4.004.798-5.456 2.394-1.453 1.596-2.274 3.59-2.464 5.98l.061.122h15.187v-.672c0-2.242-.678-4.106-2.036-5.593-1.357-1.488-3.121-2.231-5.293-2.231zm14.922 21.352h-1.1V37.761h1.1v31.784zm8.59 0h-1.099V47.5h1.1v22.045zm0-28.972h-1.099V37.76h1.1v2.812zm9.508.978v5.95h5.415v1.12h-5.415v15.24c0 1.806.305 3.093.916 3.86.61.768 1.418 1.152 2.422 1.152.367 0 .692-.013.977-.04a32.08 32.08 0 0 0 1.181-.143l.204.998c-.34.109-.692.183-1.059.224-.366.04-.78.061-1.242.061-1.479 0-2.602-.482-3.369-1.446-.767-.965-1.15-2.52-1.15-4.666V48.62h-4.072V47.5h4.072v-5.95h1.12zm18.118 28.422c-2.51 0-4.679-1.015-6.504-3.046-1.826-2.03-2.738-4.553-2.738-7.569v-1.304c0-3.165.882-5.783 2.646-7.854 1.764-2.072 3.943-3.107 6.535-3.107 2.483 0 4.509.815 6.077 2.445 1.567 1.63 2.35 3.816 2.35 6.56v1.691h-16.51v1.57c0 2.661.781 4.913 2.342 6.753 1.56 1.84 3.495 2.761 5.802 2.761 1.642 0 3.016-.224 4.122-.672a7.455 7.455 0 0 0 2.84-2.017l.59.855a8.375 8.375 0 0 1-3.165 2.19c-1.242.496-2.704.744-4.387.744zm-.061-21.78c-2.185 0-4.004.798-5.456 2.394-1.452 1.596-2.273 3.59-2.463 5.98l.06.122h15.188v-.672c0-2.242-.679-4.106-2.036-5.593-1.357-1.488-3.122-2.231-5.293-2.231z" fill="#000" mask="url(#d)"/></g></svg>