<svg width="158" height="53" viewBox="0 0 158 53" xmlns="http://www.w3.org/2000/svg" xmlns:xlink="http://www.w3.org/1999/xlink"><title>27790791-0824-4F09-98CD-76D42CA0F5C3</title><defs><path id="a" d="M0 0h157.899v52.647H0z"/><mask id="b" x="0" y="0" width="157.899" height="52.647" fill="#fff"><use xlink:href="#a"/></mask></defs><g transform="translate(0 .225)" fill="none" fill-rule="evenodd"><path fill="#D1B382" d="M20 24h116v9H20z"/><use stroke="#FFF" mask="url(#b)" stroke-width="2" xlink:href="#a"/><g fill="#FFF"><path d="M53.311 20.942a.93.93 0 0 0 .924-.934.93.93 0 0 0-.924-.934.93.93 0 0 0-.923.934.93.93 0 0 0 .923.934zM26.111 32.349c-2.152 0-3.902-1.893-3.902-4.22 0-2.295 1.75-4.161 3.902-4.161s3.903 1.866 3.903 4.16c0 2.328-1.75 4.22-3.903 4.22m0-9.702c-2.861 0-5.19 2.46-5.19 5.483v9.707h1.288v-6.12c.948 1.214 2.396 1.935 3.902 1.935 2.862 0 5.19-2.477 5.19-5.522 0-3.024-2.328-5.483-5.19-5.483M67.018 33.663h1.287V15.026h-1.287zM86.724 23.96c-2.152 0-3.902 1.893-3.902 4.22 0 2.294 1.75 4.16 3.902 4.16s3.903-1.866 3.903-4.16c0-2.327-1.75-4.22-3.903-4.22m-5.19 4.22V14.769h1.288v9.824c.948-1.215 2.396-1.935 3.902-1.935 2.862 0 5.19 2.476 5.19 5.522 0 3.023-2.328 5.483-5.19 5.483-2.861 0-5.19-2.46-5.19-5.483zM46.567 33.65h1.162l3.998-11.004H50.34l-3.192 8.809-3.193-8.81h-1.386l3.986 10.972zM52.502 33.65h1.287V22.646h-1.287zM60.238 32.387c-2.152 0-3.903-1.884-3.903-4.2 0-2.358 1.75-4.277 3.903-4.277 2.152 0 3.902 1.919 3.902 4.277 0 2.316-1.75 4.2-3.902 4.2m0-9.741c-2.862 0-5.19 2.486-5.19 5.541 0 3.013 2.328 5.464 5.19 5.464 2.872 0 5.208-2.451 5.208-5.464 0-3.055-2.336-5.541-5.208-5.541M37.572 32.387c-2.152 0-3.903-1.885-3.903-4.2 0-2.358 1.75-4.277 3.903-4.277 2.152 0 3.902 1.919 3.902 4.277 0 2.315-1.75 4.2-3.902 4.2m0-9.741c-2.862 0-5.19 2.486-5.19 5.541 0 3.012 2.328 5.463 5.19 5.463 2.872 0 5.208-2.45 5.208-5.463 0-3.055-2.336-5.541-5.208-5.541M98.641 24.76a1.814 1.814 0 0 0-.819-.732 2.586 2.586 0 0 0-1.068-.23 3.16 3.16 0 0 0-.804.104c-.264.07-.5.173-.71.31-.21.139-.378.321-.504.548a1.61 1.61 0 0 0-.19.798c0 .237.036.446.11.629.072.182.192.347.358.495.165.148.39.286.672.414.283.128.63.256 1.039.384.4.128.787.266 1.163.414.375.148.707.335.995.562.287.227.516.51.687.85.17.34.256.766.256 1.279 0 .522-.102.976-.307 1.36a2.838 2.838 0 0 1-.812.954 3.505 3.505 0 0 1-1.163.562 5.128 5.128 0 0 1-2.267.103 4.314 4.314 0 0 1-.87-.251 3.524 3.524 0 0 1-.783-.444 2.66 2.66 0 0 1-.629-.673l1.053-.872c.225.385.537.675.936.872a2.84 2.84 0 0 0 2.07.178c.268-.079.51-.195.724-.348.215-.152.39-.342.527-.569.136-.226.205-.488.205-.783 0-.326-.054-.59-.161-.791a1.446 1.446 0 0 0-.498-.525 3.82 3.82 0 0 0-.848-.4l-1.2-.413a7.544 7.544 0 0 1-1.023-.407 3.145 3.145 0 0 1-.812-.562 2.4 2.4 0 0 1-.541-.798c-.132-.31-.198-.683-.198-1.116 0-.503.098-.942.293-1.316.195-.375.458-.688.79-.939a3.577 3.577 0 0 1 1.126-.57 4.48 4.48 0 0 1 1.316-.191 4.5 4.5 0 0 1 1.602.273c.483.183.914.5 1.294.954l-1.009.887zM75.009 23.947c2.152 0 3.902 1.894 3.902 4.22 0 2.295-1.75 4.161-3.902 4.161s-3.902-1.866-3.902-4.16c0-2.327 1.75-4.22 3.902-4.22m5.19 4.18v5.512H78.91v-1.925c-.948 1.215-2.396 1.936-3.902 1.936-2.862 0-5.19-2.477-5.19-5.522 0-3.024 2.328-5.483 5.19-5.483 2.861 0 5.19 2.46 5.19 5.483zM107.163 34.11c-1.212 0-2.26-.495-3.14-1.485-.882-.99-1.323-2.22-1.323-3.69V28.3c0-1.543.426-2.82 1.278-3.83.852-1.009 1.904-1.514 3.156-1.514 1.199 0 2.177.398 2.934 1.192.757.795 1.135 1.86 1.135 3.198v.825h-7.972v.764c0 1.298.377 2.396 1.13 3.293.754.897 1.688 1.346 2.802 1.346.793 0 1.457-.11 1.99-.328a3.6 3.6 0 0 0 1.372-.983l.285.417c-.42.47-.929.826-1.528 1.067-.6.242-1.306.363-2.119.363zm-.03-10.617c-1.054 0-1.933.389-2.634 1.167-.701.778-1.097 1.75-1.19 2.915l.03.06h7.334v-.328c0-1.093-.328-2.002-.983-2.727-.656-.725-1.508-1.087-2.556-1.087zM114.34 33.9h-.53V18.407h.53v15.494zm4.149 0h-.531V23.155h.53V33.9zm0-14.123h-.531v-1.37h.53v1.37zm4.59.477v2.9h2.615v.546h-2.615v7.43c0 .88.148 1.507.443 1.882.295.374.684.56 1.17.56.176 0 .334-.006.471-.02.138-.012.328-.036.57-.069l.099.487a2.6 2.6 0 0 1-.511.11 5.42 5.42 0 0 1-.6.029c-.714 0-1.257-.235-1.627-.705-.37-.47-.555-1.228-.555-2.275v-7.429h-1.966v-.546h1.966v-2.9h.54zm8.75 13.855c-1.213 0-2.26-.495-3.142-1.485-.881-.99-1.322-2.22-1.322-3.69V28.3c0-1.543.426-2.82 1.278-3.83.852-1.009 1.904-1.514 3.156-1.514 1.199 0 2.177.398 2.934 1.192.757.795 1.135 1.86 1.135 3.198v.825h-7.972v.764c0 1.298.377 2.396 1.13 3.293.754.897 1.688 1.346 2.802 1.346.793 0 1.457-.11 1.99-.328a3.6 3.6 0 0 0 1.372-.983l.285.417c-.42.47-.929.826-1.529 1.067-.6.242-1.305.363-2.118.363zm-.03-10.617c-1.056 0-1.934.389-2.635 1.167-.701.778-1.098 1.75-1.19 2.915l.03.06h7.333v-.328c0-1.093-.327-2.002-.983-2.727-.655-.725-1.507-1.087-2.555-1.087z"/></g></g></svg>